<svg width="180" height="69" viewBox="0 0 180 69" fill="none" xmlns="http://www.w3.org/2000/svg">
<path d="M81.6792 50.116V35.9171H98.44V35.0921H81.6792V21.3709H100.394V20.5459H80.8108V50.941H101.045V50.116H81.6792Z" fill="white"/>
<path d="M116.99 51.0713C120.203 51.0713 123.156 49.8555 125.066 47.4239L124.458 46.7725C122.721 49.1173 119.986 50.2463 116.99 50.2463C111.128 50.2463 106.829 45.9475 106.829 39.6948C106.829 33.4855 111.128 29.1868 116.99 29.1868C119.986 29.1868 122.721 30.3157 124.458 32.6605L125.066 32.0092C123.156 29.5776 120.203 28.3618 116.99 28.3618C110.607 28.3618 105.961 33.0079 105.961 39.6948C105.961 46.3817 110.607 51.0713 116.99 51.0713Z" fill="white"/>
<path d="M142.138 28.3618C137.361 28.3618 134.061 30.75 132.715 34.4842V18.7222H131.847V50.941H132.715V38.7395C132.715 33.0513 136.276 29.1868 142.181 29.1868C147.261 29.1868 150.258 32.1395 150.258 37.6974V50.941H151.126V37.6974C151.126 31.6184 147.652 28.3618 142.138 28.3618Z" fill="white"/>
<path d="M169.101 51.0713C175.354 51.0713 180 46.3383 180 39.6948C180 33.0513 175.354 28.3618 169.101 28.3618C162.848 28.3618 158.202 33.0513 158.202 39.6948C158.202 46.3383 162.848 51.0713 169.101 51.0713ZM169.101 50.2463C163.37 50.2463 159.071 45.9041 159.071 39.6948C159.071 33.4855 163.37 29.1868 169.101 29.1868C174.833 29.1868 179.132 33.4855 179.132 39.6948C179.132 45.9041 174.833 50.2463 169.101 50.2463Z" fill="white"/>
<path d="M65.5416 37.1798C66.7882 19.6061 53.6319 4.34359 36.1564 3.09005C18.6808 1.83652 3.50358 15.0666 2.25705 32.6404C1.01051 50.2141 14.1667 65.4766 31.6423 66.7302C49.1179 67.9837 64.2951 54.7536 65.5416 37.1798Z" stroke="white" stroke-width="3" stroke-miterlimit="10"/>
<path d="M39.9768 62.7273C24.0941 65.2029 9.22031 54.2144 6.64128 38.3318C4.01963 22.2313 14.7514 6.97034 30.5843 4.37325C46.4847 1.76545 61.6285 13.3076 64.1151 29.3724C66.5805 45.305 55.8097 60.2159 39.9768 62.7273Z" stroke="white" stroke-width="2.73" stroke-miterlimit="10"/>
<path d="M40.9502 59.0548C26.4814 61.2089 13.0356 50.9885 10.6982 36.6134C8.27545 21.8026 18.0054 7.67756 32.3819 5.31983C46.8897 2.94423 60.8754 14.2292 63.0246 28.9722C65.1347 43.4473 55.3302 56.915 40.9502 59.0548Z" stroke="white" stroke-width="2.45" stroke-miterlimit="10"/>
<path d="M41.92 55.3826C28.8615 57.1937 16.8438 47.7628 14.7515 34.8952C12.5312 21.374 21.263 8.38141 34.1794 6.26659C47.2948 4.11962 60.1224 15.1474 61.9341 28.5722C63.689 41.5862 54.8436 53.5928 41.92 55.3861V55.3826Z" stroke="white" stroke-width="2.18" stroke-miterlimit="10"/>
<path d="M42.8899 51.7137C31.2416 53.1819 20.6556 44.5405 18.8048 33.1769C16.787 20.9452 24.5205 9.08866 35.9769 7.21318C47.6998 5.29841 59.3693 16.0654 60.84 28.172C62.2467 39.725 54.3534 50.2705 42.8899 51.7137Z" stroke="white" stroke-width="1.91" stroke-miterlimit="10"/>
<path d="M43.8594 48.0415C33.618 49.1668 24.467 41.3148 22.8578 31.4587C21.0426 20.5167 27.7743 9.79255 37.7742 8.16C48.1045 6.47386 58.6196 16.9801 59.7492 27.7721C60.8078 37.8639 53.8665 46.9448 43.863 48.0451L43.8594 48.0415Z" stroke="white" stroke-width="1.64" stroke-miterlimit="10"/>
<path d="M44.833 44.3691C36.0018 45.1479 28.2789 38.089 26.9148 29.7368C25.3021 20.0844 31.032 10.4963 39.5719 9.10306C48.5097 7.64913 57.8702 17.891 58.6588 27.3684C59.3764 35.9956 53.38 43.6154 44.833 44.3691Z" stroke="white" stroke-width="1.36" stroke-miterlimit="10"/>
<path d="M45.8027 40.7C38.3747 41.1322 32.1048 34.8628 30.968 28.0217C29.5755 19.6554 34.2859 11.2068 41.3694 10.0529C48.9146 8.83119 57.1277 18.8016 57.5682 26.9715C57.9519 34.1304 52.8897 40.2891 45.8063 40.7H45.8027Z" stroke="white" stroke-width="1.09" stroke-miterlimit="10"/>
<path d="M46.7725 37.0278C40.7477 37.1064 35.9165 31.6372 35.0177 26.3037C33.8277 19.2233 37.5399 11.9108 43.1633 10.9998C49.316 10.0067 56.3924 19.702 56.4741 26.5716C56.5416 32.2552 52.3924 36.9564 46.7725 37.0314V37.0278Z" stroke="white" stroke-width="0.82" stroke-miterlimit="10"/>
<path d="M47.7423 33.3588C43.1171 33.0766 39.7246 28.4147 39.0709 24.5852C38.0834 18.7944 40.7938 12.6179 44.9608 11.9463C49.7245 11.1854 55.6783 20.5949 55.3799 26.1677C55.1561 30.3724 51.8914 33.6089 47.7423 33.3553V33.3588Z" stroke="white" stroke-width="0.55" stroke-miterlimit="10"/>
<path d="M48.7122 29.6865C45.4795 29.0184 43.5328 25.1889 43.1243 22.8669C42.3357 18.3657 44.0479 13.3216 46.7548 12.8929C50.126 12.3607 55.0212 21.4808 54.2858 25.7676C53.8205 28.4897 51.3907 30.2402 48.7086 29.6865H48.7122Z" stroke="white" stroke-width="0.27" stroke-miterlimit="10"/>
</svg>
