<svg width="180" height="69" viewBox="0 0 180 69" fill="none" xmlns="http://www.w3.org/2000/svg">
<path d="M81.679 49.2957V35.0969H98.4397V34.2719H81.679V20.5506H100.394V19.7256H80.8105V50.1208H101.045V49.2957H81.679Z" fill="white"/>
<path d="M116.99 50.251C120.203 50.251 123.155 49.0352 125.066 46.6036L124.458 45.9523C122.721 48.297 119.986 49.426 116.99 49.426C111.128 49.426 106.829 45.1273 106.829 38.8746C106.829 32.6653 111.128 28.3665 116.99 28.3665C119.986 28.3665 122.721 29.4955 124.458 31.8402L125.066 31.1889C123.155 28.7573 120.203 27.5415 116.99 27.5415C110.607 27.5415 105.96 32.1876 105.96 38.8746C105.96 45.5615 110.607 50.251 116.99 50.251Z" fill="white"/>
<path d="M142.137 27.5415C137.361 27.5415 134.061 29.9297 132.715 33.664V17.9019H131.847V50.1208H132.715V37.9193C132.715 32.231 136.276 28.3665 142.181 28.3665C147.261 28.3665 150.257 31.3192 150.257 36.8772V50.1208H151.126V36.8772C151.126 30.7981 147.652 27.5415 142.137 27.5415Z" fill="white"/>
<path d="M169.101 50.251C175.354 50.251 180 45.5181 180 38.8746C180 32.231 175.354 27.5415 169.101 27.5415C162.848 27.5415 158.202 32.231 158.202 38.8746C158.202 45.5181 162.848 50.251 169.101 50.251ZM169.101 49.426C163.369 49.426 159.071 45.0838 159.071 38.8746C159.071 32.6653 163.369 28.3665 169.101 28.3665C174.833 28.3665 179.131 32.6653 179.131 38.8746C179.131 45.0838 174.833 49.426 169.101 49.426Z" fill="white"/>
<path d="M65.5416 36.3595C66.7882 18.7858 53.6319 3.52328 36.1564 2.26974C18.6808 1.01621 3.50358 14.2463 2.25705 31.8201C1.01051 49.3938 14.1667 64.6563 31.6423 65.9099C49.1179 67.1634 64.2951 53.9333 65.5416 36.3595Z" stroke="white" stroke-width="3" stroke-miterlimit="10"/>
<path d="M39.9768 61.9068C24.0941 64.3825 9.22031 53.394 6.64128 37.5114C4.01963 21.4109 14.7514 6.1499 30.5843 3.55281C46.4847 0.945012 61.6285 12.4872 64.1151 28.552C66.5805 44.4846 55.8097 59.3955 39.9768 61.9068Z" stroke="white" stroke-width="2.73" stroke-miterlimit="10"/>
<path d="M40.9502 58.2345C26.4814 60.3886 13.0356 50.1682 10.6982 35.7931C8.27545 20.9822 18.0054 6.85722 32.3819 4.49948C46.8897 2.12388 60.8754 13.4089 63.0246 28.1519C65.1347 42.627 55.3302 56.0946 40.9502 58.2345Z" stroke="white" stroke-width="2.45" stroke-miterlimit="10"/>
<path d="M41.9203 54.5621C28.8617 56.3733 16.8441 46.9423 14.7517 34.0748C12.5315 20.5535 21.2632 7.56097 34.1796 5.44615C47.295 3.29918 60.1226 14.327 61.9343 27.7518C63.6892 40.7658 54.8438 52.7724 41.9203 54.5657V54.5621Z" stroke="white" stroke-width="2.18" stroke-miterlimit="10"/>
<path d="M42.8901 50.8933C31.2419 52.3616 20.6558 43.7201 18.805 32.3565C16.7873 20.1249 24.5208 8.26829 35.9772 6.39281C47.7 4.47804 59.3696 15.245 60.8403 27.3517C62.247 38.9046 54.3536 49.4501 42.8901 50.8933Z" stroke="white" stroke-width="1.91" stroke-miterlimit="10"/>
<path d="M43.8594 47.221C33.618 48.3463 24.467 40.4943 22.8578 30.6382C21.0426 19.6962 27.7743 8.97204 37.7742 7.33948C48.1045 5.65335 58.6196 16.1596 59.7492 26.9516C60.8078 37.0434 53.8665 46.1243 43.863 47.2245L43.8594 47.221Z" stroke="white" stroke-width="1.64" stroke-miterlimit="10"/>
<path d="M44.8332 43.5486C36.002 44.3274 28.2792 37.2685 26.9151 28.9164C25.3023 19.2639 31.0323 9.67579 39.5722 8.28258C48.51 6.82864 57.8705 17.0705 58.6591 26.5479C59.3767 35.1751 53.3803 42.7949 44.8332 43.5486Z" stroke="white" stroke-width="1.36" stroke-miterlimit="10"/>
<path d="M45.803 39.8798C38.375 40.3121 32.105 34.0427 30.9683 27.2016C29.5757 18.8352 34.2862 10.3867 41.3696 9.23282C48.9149 8.01108 57.1279 17.9815 57.5684 26.1514C57.9521 33.3103 52.89 39.469 45.8065 39.8798H45.803Z" stroke="white" stroke-width="1.09" stroke-miterlimit="10"/>
<path d="M46.7725 36.2075C40.7477 36.2861 35.9165 30.8168 35.0177 25.4834C33.8277 18.403 37.5399 11.0904 43.1633 10.1795C49.316 9.18638 56.3924 18.8817 56.4741 25.7513C56.5416 31.4349 52.3924 36.136 46.7725 36.2111V36.2075Z" stroke="white" stroke-width="0.82" stroke-miterlimit="10"/>
<path d="M47.7425 32.5387C43.1173 32.2565 39.7248 27.5946 39.0712 23.7651C38.0836 17.9743 40.7941 11.7978 44.961 11.1262C49.7247 10.3652 55.6785 19.7748 55.3801 25.3476C55.1563 29.5522 51.8917 32.7888 47.7425 32.5351V32.5387Z" stroke="white" stroke-width="0.55" stroke-miterlimit="10"/>
<path d="M48.7119 28.8663C45.4793 28.1983 43.5326 24.3688 43.124 22.0468C42.3354 17.5456 44.0477 12.5015 46.7546 12.0728C50.1258 11.5405 55.0209 20.6607 54.2856 24.9475C53.8202 27.6696 51.3904 29.4201 48.7084 28.8663H48.7119Z" stroke="white" stroke-width="0.27" stroke-miterlimit="10"/>
</svg>
