<svg width="32" height="60" viewBox="0 0 32 60" fill="none" xmlns="http://www.w3.org/2000/svg">
<g opacity="0.5">
<path d="M24.3536 30.3536C24.5488 30.1583 24.5488 29.8417 24.3536 29.6464L21.1716 26.4645C20.9763 26.2692 20.6597 26.2692 20.4645 26.4645C20.2692 26.6597 20.2692 26.9763 20.4645 27.1716L23.2929 30L20.4645 32.8284C20.2692 33.0237 20.2692 33.3403 20.4645 33.5355C20.6597 33.7308 20.9763 33.7308 21.1716 33.5355L24.3536 30.3536ZM8 30.5L24 30.5L24 29.5L8 29.5L8 30.5Z" fill="white"/>
<path d="M10 0.5H31.5V50C31.5 55.2467 27.2467 59.5 22 59.5H0.5V10C0.5 4.7533 4.75329 0.5 10 0.5Z" stroke="white"/>
</g>
</svg>
