<svg width="32" height="60" viewBox="0 0 32 60" fill="none" xmlns="http://www.w3.org/2000/svg">
<g opacity="0.5">
<path d="M7.64645 30.3536C7.45118 30.1583 7.45118 29.8417 7.64645 29.6464L10.8284 26.4645C11.0237 26.2692 11.3403 26.2692 11.5355 26.4645C11.7308 26.6597 11.7308 26.9763 11.5355 27.1716L8.70711 30L11.5355 32.8284C11.7308 33.0237 11.7308 33.3403 11.5355 33.5355C11.3403 33.7308 11.0237 33.7308 10.8284 33.5355L7.64645 30.3536ZM24 30.5L8 30.5L8 29.5L24 29.5L24 30.5Z" fill="white"/>
<path d="M10 0.5H31.5V50C31.5 55.2467 27.2467 59.5 22 59.5H0.5V10C0.5 4.7533 4.75329 0.5 10 0.5Z" stroke="white"/>
</g>
</svg>
