<svg width="466" height="187" viewBox="0 0 466 187" fill="none" xmlns="http://www.w3.org/2000/svg">
<path d="M211.032 134.62V95.9294H254.336V93.6813H211.032V56.2919H259.384V54.0438H208.788V136.868H261.067V134.62H211.032Z" fill="white"/>
<path d="M302.263 137.223C310.564 137.223 318.193 133.91 323.129 127.284L321.559 125.51C317.071 131.899 310.003 134.975 302.263 134.975C287.117 134.975 276.011 123.261 276.011 106.223C276.011 89.3034 287.117 77.5896 302.263 77.5896C310.003 77.5896 317.071 80.666 321.559 87.0553L323.129 85.2805C318.193 78.6545 310.564 75.3415 302.263 75.3415C285.771 75.3415 273.767 88.0019 273.767 106.223C273.767 124.445 285.771 137.223 302.263 137.223Z" fill="white"/>
<path d="M367.236 75.3415C354.896 75.3415 346.369 81.8492 342.892 92.0248V49.0743H340.648V136.868H342.892V103.62C342.892 88.1202 352.091 77.5896 367.348 77.5896C380.474 77.5896 388.215 85.6354 388.215 100.781V136.868H390.459V100.781C390.459 84.2156 381.484 75.3415 367.236 75.3415Z" fill="white"/>
<path d="M436.901 137.223C453.056 137.223 465.06 124.326 465.06 106.223C465.06 88.1202 453.056 75.3415 436.901 75.3415C420.746 75.3415 408.742 88.1202 408.742 106.223C408.742 124.326 420.746 137.223 436.901 137.223ZM436.901 134.975C422.092 134.975 410.986 123.143 410.986 106.223C410.986 89.3034 422.092 77.5896 436.901 77.5896C451.709 77.5896 462.816 89.3034 462.816 106.223C462.816 123.143 451.709 134.975 436.901 134.975Z" fill="white"/>
<path d="M169.337 99.3699C172.558 51.4827 138.567 9.89342 93.4159 6.47763C48.265 3.06183 9.05207 39.113 5.83145 87.0002C2.61083 134.887 36.6021 176.477 81.753 179.892C126.904 183.308 166.117 147.257 169.337 99.3699Z" stroke="white" stroke-width="3" stroke-miterlimit="10"/>
<path d="M103.287 168.985C62.2513 175.73 23.8225 145.788 17.1591 102.509C10.3857 58.6359 38.1128 17.0508 79.0198 9.97393C120.101 2.86786 159.227 34.3195 165.652 78.0949C172.022 121.51 144.194 162.141 103.287 168.985Z" stroke="white" stroke-width="2.73" stroke-miterlimit="10"/>
<path d="M105.802 158.978C68.4191 164.847 33.6798 136.997 27.6406 97.8265C21.3811 57.4678 46.52 18.9782 83.664 12.5536C121.147 6.08021 157.282 36.831 162.835 77.0047C168.286 116.448 142.955 153.147 105.802 158.978Z" stroke="white" stroke-width="2.45" stroke-miterlimit="10"/>
<path d="M108.307 148.971C74.5685 153.906 43.5189 128.207 38.113 93.1442C32.3766 56.2997 54.9365 20.8959 88.3082 15.1331C122.194 9.2828 155.336 39.3327 160.017 75.9144C164.551 111.377 141.697 144.094 108.307 148.98V148.971Z" stroke="white" stroke-width="2.18" stroke-miterlimit="10"/>
<path d="M110.813 138.974C80.7181 142.974 53.3673 119.427 48.5855 88.462C43.3723 55.1316 63.3531 22.8233 92.9526 17.7128C123.24 12.4952 153.391 41.8345 157.19 74.8242C160.825 106.305 140.431 135.041 110.813 138.974Z" stroke="white" stroke-width="1.91" stroke-miterlimit="10"/>
<path d="M113.318 128.967C86.8578 132.033 63.2149 110.637 59.0572 83.7798C54.3672 53.9635 71.7598 24.741 97.5962 20.2924C124.286 15.6978 151.453 44.3265 154.372 73.7339C157.107 101.233 139.173 125.978 113.328 128.976L113.318 128.967Z" stroke="white" stroke-width="1.64" stroke-miterlimit="10"/>
<path d="M115.833 118.96C93.0164 121.082 73.0631 101.847 69.5387 79.0878C65.3718 52.7856 80.1762 26.6586 102.24 22.8622C125.333 18.9003 149.517 46.8087 151.555 72.6339C153.408 96.1424 137.916 116.906 115.833 118.96Z" stroke="white" stroke-width="1.36" stroke-miterlimit="10"/>
<path d="M118.339 108.963C99.1476 110.14 82.9482 93.0566 80.0112 74.4153C76.4134 51.6175 88.5836 28.5957 106.885 25.4516C126.379 22.1224 147.599 49.291 148.737 71.5534C149.728 91.0611 136.649 107.843 118.348 108.963H118.339Z" stroke="white" stroke-width="1.09" stroke-miterlimit="10"/>
<path d="M120.844 98.9556C105.278 99.1698 92.7959 84.2665 90.4739 69.7331C87.3992 50.4396 96.9903 30.5134 111.519 28.0312C127.416 25.325 145.699 51.744 145.91 70.4632C146.084 85.9505 135.364 98.7609 120.844 98.9654V98.9556Z" stroke="white" stroke-width="0.82" stroke-miterlimit="10"/>
<path d="M123.35 88.9584C111.4 88.1894 102.635 75.4861 100.946 65.0509C98.3946 49.2715 105.398 32.4408 116.163 30.6108C128.471 28.5373 143.854 54.1776 143.083 69.3632C142.505 80.8205 134.07 89.6398 123.35 88.9487V88.9584Z" stroke="white" stroke-width="0.55" stroke-miterlimit="10"/>
<path d="M125.855 78.9515C117.503 77.1312 112.474 66.696 111.418 60.3687C109.381 48.1034 113.805 34.3585 120.798 33.1904C129.508 31.7399 142.156 56.5917 140.256 68.2729C139.054 75.6905 132.776 80.4604 125.846 78.9515H125.855Z" stroke="white" stroke-width="0.27" stroke-miterlimit="10"/>
</svg>
