<svg width="13" height="24" viewBox="0 0 13 24" fill="none" xmlns="http://www.w3.org/2000/svg">
<path d="M3.54545 10.3238C4.09774 10.3238 4.54545 9.8761 4.54545 9.32382V5.82739C4.54545 4.55161 5.05923 3.32523 5.97835 2.41881C6.89795 1.51193 8.14812 1 9.45455 1H12V3.66191H9.45455C8.88035 3.66191 8.32691 3.88672 7.91671 4.29126C7.50603 4.69626 7.27273 5.24854 7.27273 5.82738V9.32382C7.27273 9.8761 7.72044 10.3238 8.27273 10.3238H11.7149L11.0401 12.9857H8.27273C7.72044 12.9857 7.27273 13.4334 7.27273 13.9857V22.3095H4.54545V13.9857C4.54545 13.4334 4.09774 12.9857 3.54545 12.9857H1V10.3238H3.54545Z" fill="white" stroke="white" stroke-width="2" stroke-linecap="round" stroke-linejoin="round"/>
</svg>
