<svg width="28" height="24" viewBox="0 0 28 24" fill="none" xmlns="http://www.w3.org/2000/svg">
<path d="M27 1.01233C25.8683 1.8405 24.6152 2.47392 23.2891 2.8882C22.5773 2.03917 21.6314 1.43739 20.5792 1.16427C19.527 0.891146 18.4194 0.959848 17.4061 1.36109C16.3928 1.76232 15.5227 2.47673 14.9135 3.4077C14.3043 4.33866 13.9855 5.44126 14 6.56637V7.79243C11.9231 7.8483 9.86514 7.37044 8.00937 6.4014C6.15361 5.43237 4.55765 4.00224 3.36364 2.23839C3.36364 2.23839 -1.36364 13.2729 9.27273 18.1771C6.83881 19.8911 3.93937 20.7506 1 20.6293C11.6364 26.7596 24.6364 20.6293 24.6364 6.52959C24.6353 6.18808 24.6036 5.84741 24.5418 5.51196C25.748 4.27793 26.5992 2.71988 27 1.01233Z" fill="white" stroke="white" stroke-width="2" stroke-linecap="round" stroke-linejoin="round"/>
</svg>
